{
  "asset": {
    "version": "2.0",
    "generator": "THREE.GLTFExporter"
  },
  "scenes": [
    {
      "name": "Scene",
      "nodes": [
        2
      ]
    }
  ],
  "scene": 0,
  "nodes": [
    {
      "matrix": [
        1,
        0,
        0,
        0,
        0,
        1,
        0,
        0,
        0,
        0,
        1,
        0,
        30,
        3,
        30,
        1
      ],
      "name": "Ceiling",
      "extras": {
        "name": "Ceiling"
      },
      "mesh": 0
    },
    {
      "matrix": [
        0.9999999999999929,
        8.16170209660793e-8,
        8.742278011131038e-8,
        0,
        -8.161701332333744e-8,
        0.9999999999999929,
        -8.742277303564191e-8,
        0,
        -8.742278724649605e-8,
        8.742276590045509e-8,
        0.9999999999999923,
        0,
        0,
        0,
        0,
        1
      ],
      "name": "SmokeDetector",
      "extras": {
        "name": "SmokeDetector"
      },
      "mesh": 1
    },
    {
      "matrix": [
        1.6,
        0,
        0,
        0,
        0,
        1.6,
        0,
        0,
        0,
        0,
        1.6,
        0,
        0,
        0,
        0,
        1
      ],
      "name": "SBScene.gltf",
      "children": [
        0,
        1
      ]
    }
  ],
  "bufferViews": [
    {
      "buffer": 0,
      "byteOffset": 0,
      "byteLength": 30168,
      "target": 34962,
      "byteStride": 12
    },
    {
      "buffer": 0,
      "byteOffset": 30168,
      "byteLength": 30168,
      "target": 34962,
      "byteStride": 12
    },
    {
      "buffer": 0,
      "byteOffset": 60336,
      "byteLength": 20112,
      "target": 34962,
      "byteStride": 8
    },
    {
      "buffer": 0,
      "byteOffset": 80448,
      "byteLength": 9984,
      "target": 34963
    },
    {
      "buffer": 0,
      "byteOffset": 90432,
      "byteLength": 129936,
      "target": 34962,
      "byteStride": 12
    },
    {
      "buffer": 0,
      "byteOffset": 220368,
      "byteLength": 129936,
      "target": 34962,
      "byteStride": 12
    },
    {
      "buffer": 0,
      "byteOffset": 350304,
      "byteLength": 86624,
      "target": 34962,
      "byteStride": 8
    },
    {
      "buffer": 0,
      "byteOffset": 436928,
      "byteLength": 92844,
      "target": 34963
    }
  ],
  "buffers": [
    {
      "byteLength": 529772,
      "uri": "data:application/octet-stream;base64,"
    }
  ],
  "accessors": [
    {
      "bufferView": 0,
      "componentType": 5126,
      "count": 2514,
      "max": [
        120,
        0.5249999761581421,
        120
      ],
      "min": [
        -120,
        -0.9750000238418579,
        -120
      ],
      "type": "VEC3"
    },
    {
      "bufferView": 1,
      "componentType": 5126,
      "count": 2514,
      "max": [
        1,
        1,
        1
      ],
      "min": [
        -1,
        -1,
        -1
      ],
      "type": "VEC3"
    },
    {
      "bufferView": 2,
      "componentType": 5126,
      "count": 2514,
      "max": [
        0.9952350854873657,
        0.9966156482696533
      ],
      "min": [
        0.002334387507289648,
        0.0023266077041625977
      ],
      "type": "VEC2"
    },
    {
      "bufferView": 3,
      "componentType": 5123,
      "count": 4992,
      "max": [
        2513
      ],
      "min": [
        0
      ],
      "type": "SCALAR"
    },
    {
      "bufferView": 4,
      "componentType": 5126,
      "count": 10828,
      "max": [
        7.983962535858154,
        2.491245985031128,
        7.983963966369629
      ],
      "min": [
        -7.9839630126953125,
        -2.4912450313568115,
        -7.983962059020996
      ],
      "type": "VEC3"
    },
    {
      "bufferView": 5,
      "componentType": 5126,
      "count": 10828,
      "max": [
        1,
        1,
        1
      ],
      "min": [
        -1,
        -1,
        -1
      ],
      "type": "VEC3"
    },
    {
      "bufferView": 6,
      "componentType": 5126,
      "count": 10828,
      "max": [
        0.9979999661445618,
        0.9417194128036499
      ],
      "min": [
        0.0019999919459223747,
        0.0020000338554382324
      ],
      "type": "VEC2"
    },
    {
      "bufferView": 7,
      "componentType": 5123,
      "count": 46422,
      "max": [
        10827
      ],
      "min": [
        0
      ],
      "type": "SCALAR"
    }
  ],
  "materials": [
    {
      "pbrMetallicRoughness": {
        "metallicFactor": 0.72,
        "roughnessFactor": 1,
        "metallicRoughnessTexture": {
          "index": 0
        },
        "baseColorTexture": {
          "index": 1
        }
      },
      "normalTexture": {
        "index": 2
      },
      "name": "Ceiling_mtl"
    },
    {
      "pbrMetallicRoughness": {
        "metallicFactor": 0,
        "roughnessFactor": 0.84,
        "metallicRoughnessTexture": {
          "index": 3
        },
        "baseColorTexture": {
          "index": 4
        }
      },
      "normalTexture": {
        "index": 5
      },
      "name": "Smoke_Detector_Mat"
    }
  ],
  "textures": [
    {
      "sampler": 0,
      "source": 0
    },
    {
      "sampler": 1,
      "source": 1
    },
    {
      "sampler": 2,
      "source": 2
    },
    {
      "sampler": 3,
      "source": 3
    },
    {
      "sampler": 4,
      "source": 4
    },
    {
      "sampler": 5,
      "source": 5
    }
  ],
  "samplers": [
    {
      "magFilter": 9729,
      "minFilter": 9729,
      "wrapS": 10497,
      "wrapT": 10497
    },
    {
      "magFilter": 9729,
      "minFilter": 9729,
      "wrapS": 10497,
      "wrapT": 10497
    },
    {
      "magFilter": 9729,
      "minFilter": 9729,
      "wrapS": 10497,
      "wrapT": 10497
    },
    {
      "magFilter": 9729,
      "minFilter": 9729,
      "wrapS": 10497,
      "wrapT": 10497
    },
    {
      "magFilter": 9729,
      "minFilter": 9729,
      "wrapS": 10497,
      "wrapT": 10497
    },
    {
      "magFilter": 9729,
      "minFilter": 9729,
      "wrapS": 10497,
      "wrapT": 10497
    }
  ],
  "images": [
    {
      "mimeType": "image/png",
      "uri": "data:image/png;base64,"
    },
    {
      "mimeType": "image/png",
      "uri": "data:image/png;base64,"
    },
    {
      "mimeType": "image/png",
      "uri": "data:image/png;base64,"
    },
    {
      "mimeType": "image/png",
      "uri": "data:image/png;base64,"
    },
    {
      "mimeType": "image/png",
      "uri": "data:image/png;base64,"
    },
    {
      "mimeType": "image/png",
      "uri": "data:image/png;base64,"
    }
  ],
  "meshes": [
    {
      "primitives": [
        {
          "mode": 4,
          "attributes": {
            "POSITION": 0,
            "NORMAL": 1,
            "TEXCOORD_0": 2
          },
          "indices": 3,
          "material": 0
        }
      ]
    },
    {
      "primitives": [
        {
          "mode": 4,
          "attributes": {
            "POSITION": 4,
            "NORMAL": 5,
            "TEXCOORD_0": 6
          },
          "indices": 7,
          "material": 1
        }
      ]
    }
  ]
}